<mxfile host="app.diagrams.net" agent="Mozilla/5.0 (Windows NT 10.0; Win64; x64; rv:139.0) Gecko/20100101 Firefox/139.0" version="28.0.4">
  <diagram id="C5RBs43oDa-KdzZeNtuy" name="Page-1">
    <mxGraphModel dx="4018" dy="987" grid="1" gridSize="10" guides="1" tooltips="1" connect="1" arrows="1" fold="1" page="1" pageScale="1" pageWidth="827" pageHeight="1169" math="0" shadow="0">
      <root>
        <mxCell id="WIyWlLk6GJQsqaUBKTNV-0" />
        <mxCell id="WIyWlLk6GJQsqaUBKTNV-1" parent="WIyWlLk6GJQsqaUBKTNV-0" />
        <mxCell id="WIyWlLk6GJQsqaUBKTNV-3" value="Public home page" style="rounded=1;whiteSpace=wrap;html=1;fontSize=12;glass=0;strokeWidth=1;shadow=0;" parent="WIyWlLk6GJQsqaUBKTNV-1" vertex="1">
          <mxGeometry x="160" y="80" width="120" height="40" as="geometry" />
        </mxCell>
        <mxCell id="HL_lfFr4xf02-DWxIg63-0" value="Home" style="rounded=1;whiteSpace=wrap;html=1;fontSize=12;glass=0;strokeWidth=1;shadow=0;" vertex="1" parent="WIyWlLk6GJQsqaUBKTNV-1">
          <mxGeometry x="-220" y="200" width="120" height="40" as="geometry" />
        </mxCell>
        <mxCell id="HL_lfFr4xf02-DWxIg63-1" value="Question List" style="rounded=1;whiteSpace=wrap;html=1;fontSize=12;glass=0;strokeWidth=1;shadow=0;" vertex="1" parent="WIyWlLk6GJQsqaUBKTNV-1">
          <mxGeometry x="30" y="200" width="120" height="40" as="geometry" />
        </mxCell>
        <mxCell id="HL_lfFr4xf02-DWxIg63-4" value="" style="endArrow=none;html=1;rounded=0;" edge="1" parent="WIyWlLk6GJQsqaUBKTNV-1">
          <mxGeometry width="50" height="50" relative="1" as="geometry">
            <mxPoint x="-160" y="160" as="sourcePoint" />
            <mxPoint x="600" y="160" as="targetPoint" />
          </mxGeometry>
        </mxCell>
        <mxCell id="HL_lfFr4xf02-DWxIg63-5" value="" style="endArrow=none;html=1;rounded=0;entryX=0.5;entryY=1;entryDx=0;entryDy=0;" edge="1" parent="WIyWlLk6GJQsqaUBKTNV-1" target="WIyWlLk6GJQsqaUBKTNV-3">
          <mxGeometry width="50" height="50" relative="1" as="geometry">
            <mxPoint x="220" y="160" as="sourcePoint" />
            <mxPoint x="270" y="300" as="targetPoint" />
          </mxGeometry>
        </mxCell>
        <mxCell id="HL_lfFr4xf02-DWxIg63-6" value="" style="endArrow=classic;html=1;rounded=0;entryX=0.5;entryY=0;entryDx=0;entryDy=0;" edge="1" parent="WIyWlLk6GJQsqaUBKTNV-1" target="HL_lfFr4xf02-DWxIg63-0">
          <mxGeometry width="50" height="50" relative="1" as="geometry">
            <mxPoint x="-160" y="160" as="sourcePoint" />
            <mxPoint x="-70" y="280" as="targetPoint" />
          </mxGeometry>
        </mxCell>
        <mxCell id="HL_lfFr4xf02-DWxIg63-7" value="" style="endArrow=classic;html=1;rounded=0;entryX=0.5;entryY=0;entryDx=0;entryDy=0;" edge="1" parent="WIyWlLk6GJQsqaUBKTNV-1">
          <mxGeometry width="50" height="50" relative="1" as="geometry">
            <mxPoint x="600" y="160" as="sourcePoint" />
            <mxPoint x="600" y="200.0000000000001" as="targetPoint" />
          </mxGeometry>
        </mxCell>
        <mxCell id="HL_lfFr4xf02-DWxIg63-8" value="" style="endArrow=classic;html=1;rounded=0;entryX=0.5;entryY=0;entryDx=0;entryDy=0;" edge="1" parent="WIyWlLk6GJQsqaUBKTNV-1" target="HL_lfFr4xf02-DWxIg63-1">
          <mxGeometry width="50" height="50" relative="1" as="geometry">
            <mxPoint x="90" y="160" as="sourcePoint" />
            <mxPoint x="170" y="320" as="targetPoint" />
          </mxGeometry>
        </mxCell>
        <mxCell id="HL_lfFr4xf02-DWxIg63-9" value="Valid email and password" style="strokeWidth=2;html=1;shape=mxgraph.flowchart.decision;whiteSpace=wrap;" vertex="1" parent="WIyWlLk6GJQsqaUBKTNV-1">
          <mxGeometry x="350" y="350" width="100" height="100" as="geometry" />
        </mxCell>
        <mxCell id="HL_lfFr4xf02-DWxIg63-11" value="Individual question" style="rounded=1;whiteSpace=wrap;html=1;fontSize=12;glass=0;strokeWidth=1;shadow=0;" vertex="1" parent="WIyWlLk6GJQsqaUBKTNV-1">
          <mxGeometry x="30" y="280" width="120" height="40" as="geometry" />
        </mxCell>
        <mxCell id="HL_lfFr4xf02-DWxIg63-13" value="" style="curved=1;endArrow=classic;html=1;rounded=0;exitX=0;exitY=0.5;exitDx=0;exitDy=0;entryX=0;entryY=0.5;entryDx=0;entryDy=0;" edge="1" parent="WIyWlLk6GJQsqaUBKTNV-1" source="HL_lfFr4xf02-DWxIg63-0" target="WIyWlLk6GJQsqaUBKTNV-3">
          <mxGeometry width="50" height="50" relative="1" as="geometry">
            <mxPoint x="-70" y="110" as="sourcePoint" />
            <mxPoint x="-20" y="60" as="targetPoint" />
            <Array as="points">
              <mxPoint x="-300" y="80" />
              <mxPoint x="-70" y="60" />
            </Array>
          </mxGeometry>
        </mxCell>
        <mxCell id="HL_lfFr4xf02-DWxIg63-14" value="" style="endArrow=classic;html=1;rounded=0;exitX=0.5;exitY=1;exitDx=0;exitDy=0;" edge="1" parent="WIyWlLk6GJQsqaUBKTNV-1" source="HL_lfFr4xf02-DWxIg63-1" target="HL_lfFr4xf02-DWxIg63-11">
          <mxGeometry width="50" height="50" relative="1" as="geometry">
            <mxPoint x="-100" y="350" as="sourcePoint" />
            <mxPoint x="-50" y="300" as="targetPoint" />
          </mxGeometry>
        </mxCell>
        <mxCell id="HL_lfFr4xf02-DWxIg63-15" value="" style="endArrow=classic;html=1;rounded=0;" edge="1" parent="WIyWlLk6GJQsqaUBKTNV-1">
          <mxGeometry width="50" height="50" relative="1" as="geometry">
            <mxPoint x="400" y="160" as="sourcePoint" />
            <mxPoint x="400" y="200" as="targetPoint" />
          </mxGeometry>
        </mxCell>
        <mxCell id="HL_lfFr4xf02-DWxIg63-17" value="Login" style="rounded=1;whiteSpace=wrap;html=1;fontSize=12;glass=0;strokeWidth=1;shadow=0;" vertex="1" parent="WIyWlLk6GJQsqaUBKTNV-1">
          <mxGeometry x="340" y="200" width="120" height="40" as="geometry" />
        </mxCell>
        <mxCell id="HL_lfFr4xf02-DWxIg63-18" value="&lt;div&gt;Enter email and password&lt;/div&gt;" style="rounded=1;whiteSpace=wrap;html=1;fontSize=12;glass=0;strokeWidth=1;shadow=0;" vertex="1" parent="WIyWlLk6GJQsqaUBKTNV-1">
          <mxGeometry x="340" y="280" width="120" height="40" as="geometry" />
        </mxCell>
        <mxCell id="HL_lfFr4xf02-DWxIg63-19" value="" style="endArrow=classic;html=1;rounded=0;exitX=0.5;exitY=1;exitDx=0;exitDy=0;entryX=0.5;entryY=0;entryDx=0;entryDy=0;" edge="1" parent="WIyWlLk6GJQsqaUBKTNV-1" source="HL_lfFr4xf02-DWxIg63-17" target="HL_lfFr4xf02-DWxIg63-18">
          <mxGeometry width="50" height="50" relative="1" as="geometry">
            <mxPoint x="310" y="300" as="sourcePoint" />
            <mxPoint x="360" y="250" as="targetPoint" />
          </mxGeometry>
        </mxCell>
        <mxCell id="HL_lfFr4xf02-DWxIg63-20" value="" style="endArrow=classic;html=1;rounded=0;exitX=0.5;exitY=1;exitDx=0;exitDy=0;entryX=0.5;entryY=0;entryDx=0;entryDy=0;entryPerimeter=0;" edge="1" parent="WIyWlLk6GJQsqaUBKTNV-1" source="HL_lfFr4xf02-DWxIg63-18" target="HL_lfFr4xf02-DWxIg63-9">
          <mxGeometry width="50" height="50" relative="1" as="geometry">
            <mxPoint x="100" y="470" as="sourcePoint" />
            <mxPoint x="150" y="420" as="targetPoint" />
          </mxGeometry>
        </mxCell>
        <mxCell id="HL_lfFr4xf02-DWxIg63-21" value="" style="endArrow=classic;html=1;rounded=0;edgeStyle=orthogonalEdgeStyle;exitX=0;exitY=0.5;exitDx=0;exitDy=0;exitPerimeter=0;entryX=0;entryY=0.5;entryDx=0;entryDy=0;" edge="1" parent="WIyWlLk6GJQsqaUBKTNV-1" source="HL_lfFr4xf02-DWxIg63-9" target="HL_lfFr4xf02-DWxIg63-17">
          <mxGeometry relative="1" as="geometry">
            <mxPoint x="250" y="470" as="sourcePoint" />
            <mxPoint x="250" y="230" as="targetPoint" />
            <Array as="points">
              <mxPoint x="300" y="400" />
              <mxPoint x="300" y="220" />
            </Array>
          </mxGeometry>
        </mxCell>
        <mxCell id="HL_lfFr4xf02-DWxIg63-22" value="No" style="edgeLabel;resizable=0;html=1;;align=center;verticalAlign=middle;" connectable="0" vertex="1" parent="HL_lfFr4xf02-DWxIg63-21">
          <mxGeometry relative="1" as="geometry" />
        </mxCell>
        <mxCell id="HL_lfFr4xf02-DWxIg63-23" value="User home page" style="rounded=1;whiteSpace=wrap;html=1;fontSize=12;glass=0;strokeWidth=1;shadow=0;" vertex="1" parent="WIyWlLk6GJQsqaUBKTNV-1">
          <mxGeometry x="920" y="680" width="120" height="40" as="geometry" />
        </mxCell>
        <mxCell id="HL_lfFr4xf02-DWxIg63-27" value="Register" style="rounded=1;whiteSpace=wrap;html=1;fontSize=12;glass=0;strokeWidth=1;shadow=0;" vertex="1" parent="WIyWlLk6GJQsqaUBKTNV-1">
          <mxGeometry x="540" y="200" width="120" height="40" as="geometry" />
        </mxCell>
        <mxCell id="HL_lfFr4xf02-DWxIg63-28" value="" style="endArrow=classic;html=1;rounded=0;exitX=1;exitY=0.5;exitDx=0;exitDy=0;edgeStyle=orthogonalEdgeStyle;entryX=0.5;entryY=0;entryDx=0;entryDy=0;" edge="1" parent="WIyWlLk6GJQsqaUBKTNV-1" source="HL_lfFr4xf02-DWxIg63-27" target="HL_lfFr4xf02-DWxIg63-23">
          <mxGeometry width="50" height="50" relative="1" as="geometry">
            <mxPoint x="470" y="710" as="sourcePoint" />
            <mxPoint x="520" y="660" as="targetPoint" />
          </mxGeometry>
        </mxCell>
        <mxCell id="HL_lfFr4xf02-DWxIg63-29" value="" style="curved=1;endArrow=classic;html=1;rounded=0;exitX=0;exitY=0.5;exitDx=0;exitDy=0;entryX=0;entryY=0.5;entryDx=0;entryDy=0;" edge="1" parent="WIyWlLk6GJQsqaUBKTNV-1" source="HL_lfFr4xf02-DWxIg63-11" target="HL_lfFr4xf02-DWxIg63-1">
          <mxGeometry width="50" height="50" relative="1" as="geometry">
            <mxPoint x="-70" y="300" as="sourcePoint" />
            <mxPoint x="-20" y="250" as="targetPoint" />
            <Array as="points">
              <mxPoint x="-20" y="300" />
              <mxPoint x="-40" y="250" />
            </Array>
          </mxGeometry>
        </mxCell>
        <mxCell id="HL_lfFr4xf02-DWxIg63-31" value="Home" style="rounded=1;whiteSpace=wrap;html=1;fontSize=12;glass=0;strokeWidth=1;shadow=0;" vertex="1" parent="WIyWlLk6GJQsqaUBKTNV-1">
          <mxGeometry x="540" y="800" width="120" height="40" as="geometry" />
        </mxCell>
        <mxCell id="HL_lfFr4xf02-DWxIg63-32" value="Question List" style="rounded=1;whiteSpace=wrap;html=1;fontSize=12;glass=0;strokeWidth=1;shadow=0;" vertex="1" parent="WIyWlLk6GJQsqaUBKTNV-1">
          <mxGeometry x="790" y="800" width="120" height="40" as="geometry" />
        </mxCell>
        <mxCell id="HL_lfFr4xf02-DWxIg63-33" value="Ask a question" style="rounded=1;whiteSpace=wrap;html=1;fontSize=12;glass=0;strokeWidth=1;shadow=0;" vertex="1" parent="WIyWlLk6GJQsqaUBKTNV-1">
          <mxGeometry x="1030" y="800" width="120" height="40" as="geometry" />
        </mxCell>
        <mxCell id="HL_lfFr4xf02-DWxIg63-34" value="Logout" style="rounded=1;whiteSpace=wrap;html=1;fontSize=12;glass=0;strokeWidth=1;shadow=0;" vertex="1" parent="WIyWlLk6GJQsqaUBKTNV-1">
          <mxGeometry x="1440" y="800" width="120" height="40" as="geometry" />
        </mxCell>
        <mxCell id="HL_lfFr4xf02-DWxIg63-35" value="" style="curved=1;endArrow=classic;html=1;rounded=0;exitX=0;exitY=0.5;exitDx=0;exitDy=0;entryX=0;entryY=0.5;entryDx=0;entryDy=0;" edge="1" parent="WIyWlLk6GJQsqaUBKTNV-1" source="HL_lfFr4xf02-DWxIg63-31" target="HL_lfFr4xf02-DWxIg63-23">
          <mxGeometry width="50" height="50" relative="1" as="geometry">
            <mxPoint x="420" y="750" as="sourcePoint" />
            <mxPoint x="470" y="700" as="targetPoint" />
            <Array as="points">
              <mxPoint x="450" y="790" />
              <mxPoint x="590" y="680" />
            </Array>
          </mxGeometry>
        </mxCell>
        <mxCell id="HL_lfFr4xf02-DWxIg63-36" value="" style="endArrow=none;html=1;rounded=0;" edge="1" parent="WIyWlLk6GJQsqaUBKTNV-1">
          <mxGeometry width="50" height="50" relative="1" as="geometry">
            <mxPoint x="599.5" y="760" as="sourcePoint" />
            <mxPoint x="1500" y="760" as="targetPoint" />
          </mxGeometry>
        </mxCell>
        <mxCell id="HL_lfFr4xf02-DWxIg63-37" value="" style="endArrow=none;html=1;rounded=0;entryX=0.5;entryY=1;entryDx=0;entryDy=0;" edge="1" parent="WIyWlLk6GJQsqaUBKTNV-1">
          <mxGeometry width="50" height="50" relative="1" as="geometry">
            <mxPoint x="979.5" y="760" as="sourcePoint" />
            <mxPoint x="979.5" y="720" as="targetPoint" />
          </mxGeometry>
        </mxCell>
        <mxCell id="HL_lfFr4xf02-DWxIg63-38" value="" style="endArrow=classic;html=1;rounded=0;entryX=0.5;entryY=0;entryDx=0;entryDy=0;" edge="1" parent="WIyWlLk6GJQsqaUBKTNV-1">
          <mxGeometry width="50" height="50" relative="1" as="geometry">
            <mxPoint x="599.5" y="760" as="sourcePoint" />
            <mxPoint x="599.5" y="800" as="targetPoint" />
          </mxGeometry>
        </mxCell>
        <mxCell id="HL_lfFr4xf02-DWxIg63-39" value="" style="endArrow=classic;html=1;rounded=0;entryX=0.5;entryY=0;entryDx=0;entryDy=0;" edge="1" parent="WIyWlLk6GJQsqaUBKTNV-1">
          <mxGeometry width="50" height="50" relative="1" as="geometry">
            <mxPoint x="1499.5" y="760" as="sourcePoint" />
            <mxPoint x="1499.5" y="800.0000000000001" as="targetPoint" />
          </mxGeometry>
        </mxCell>
        <mxCell id="HL_lfFr4xf02-DWxIg63-40" value="" style="endArrow=classic;html=1;rounded=0;entryX=0.5;entryY=0;entryDx=0;entryDy=0;" edge="1" parent="WIyWlLk6GJQsqaUBKTNV-1">
          <mxGeometry width="50" height="50" relative="1" as="geometry">
            <mxPoint x="849.5" y="760" as="sourcePoint" />
            <mxPoint x="849.5" y="800" as="targetPoint" />
          </mxGeometry>
        </mxCell>
        <mxCell id="HL_lfFr4xf02-DWxIg63-41" value="" style="endArrow=classic;html=1;rounded=0;" edge="1" parent="WIyWlLk6GJQsqaUBKTNV-1">
          <mxGeometry width="50" height="50" relative="1" as="geometry">
            <mxPoint x="1089.5" y="760" as="sourcePoint" />
            <mxPoint x="1089.5" y="800" as="targetPoint" />
          </mxGeometry>
        </mxCell>
        <mxCell id="HL_lfFr4xf02-DWxIg63-42" value="Individual question" style="rounded=1;whiteSpace=wrap;html=1;fontSize=12;glass=0;strokeWidth=1;shadow=0;" vertex="1" parent="WIyWlLk6GJQsqaUBKTNV-1">
          <mxGeometry x="790" y="880" width="120" height="40" as="geometry" />
        </mxCell>
        <mxCell id="HL_lfFr4xf02-DWxIg63-43" value="" style="endArrow=classic;html=1;rounded=0;exitX=0.5;exitY=1;exitDx=0;exitDy=0;" edge="1" parent="WIyWlLk6GJQsqaUBKTNV-1" target="HL_lfFr4xf02-DWxIg63-42">
          <mxGeometry width="50" height="50" relative="1" as="geometry">
            <mxPoint x="850" y="840" as="sourcePoint" />
            <mxPoint x="710" y="900" as="targetPoint" />
          </mxGeometry>
        </mxCell>
        <mxCell id="HL_lfFr4xf02-DWxIg63-44" value="" style="curved=1;endArrow=classic;html=1;rounded=0;exitX=0;exitY=0.5;exitDx=0;exitDy=0;entryX=0;entryY=0.5;entryDx=0;entryDy=0;" edge="1" parent="WIyWlLk6GJQsqaUBKTNV-1" source="HL_lfFr4xf02-DWxIg63-42">
          <mxGeometry width="50" height="50" relative="1" as="geometry">
            <mxPoint x="690" y="900" as="sourcePoint" />
            <mxPoint x="790" y="820" as="targetPoint" />
            <Array as="points">
              <mxPoint x="740" y="900" />
              <mxPoint x="720" y="850" />
            </Array>
          </mxGeometry>
        </mxCell>
        <mxCell id="HL_lfFr4xf02-DWxIg63-45" value="Input question" style="rounded=1;whiteSpace=wrap;html=1;fontSize=12;glass=0;strokeWidth=1;shadow=0;" vertex="1" parent="WIyWlLk6GJQsqaUBKTNV-1">
          <mxGeometry x="1030" y="880" width="120" height="40" as="geometry" />
        </mxCell>
        <mxCell id="HL_lfFr4xf02-DWxIg63-46" value="" style="endArrow=classic;html=1;rounded=0;" edge="1" parent="WIyWlLk6GJQsqaUBKTNV-1">
          <mxGeometry width="50" height="50" relative="1" as="geometry">
            <mxPoint x="1089.5" y="840" as="sourcePoint" />
            <mxPoint x="1089.5" y="880" as="targetPoint" />
          </mxGeometry>
        </mxCell>
        <mxCell id="HL_lfFr4xf02-DWxIg63-47" value="" style="endArrow=classic;html=1;rounded=0;exitX=0;exitY=0.5;exitDx=0;exitDy=0;edgeStyle=orthogonalEdgeStyle;entryX=1;entryY=0.5;entryDx=0;entryDy=0;" edge="1" parent="WIyWlLk6GJQsqaUBKTNV-1" source="HL_lfFr4xf02-DWxIg63-45" target="HL_lfFr4xf02-DWxIg63-32">
          <mxGeometry width="50" height="50" relative="1" as="geometry">
            <mxPoint x="960" y="1040" as="sourcePoint" />
            <mxPoint x="950" y="900" as="targetPoint" />
          </mxGeometry>
        </mxCell>
        <mxCell id="HL_lfFr4xf02-DWxIg63-48" value="Admin message" style="rounded=1;whiteSpace=wrap;html=1;fontSize=12;glass=0;strokeWidth=1;shadow=0;" vertex="1" parent="WIyWlLk6GJQsqaUBKTNV-1">
          <mxGeometry x="1230" y="800" width="120" height="40" as="geometry" />
        </mxCell>
        <mxCell id="HL_lfFr4xf02-DWxIg63-49" value="" style="endArrow=classic;html=1;rounded=0;" edge="1" parent="WIyWlLk6GJQsqaUBKTNV-1">
          <mxGeometry width="50" height="50" relative="1" as="geometry">
            <mxPoint x="1289.5" y="760" as="sourcePoint" />
            <mxPoint x="1289.5" y="800" as="targetPoint" />
          </mxGeometry>
        </mxCell>
        <mxCell id="HL_lfFr4xf02-DWxIg63-50" value="Input message" style="rounded=1;whiteSpace=wrap;html=1;fontSize=12;glass=0;strokeWidth=1;shadow=0;" vertex="1" parent="WIyWlLk6GJQsqaUBKTNV-1">
          <mxGeometry x="1230" y="880" width="120" height="40" as="geometry" />
        </mxCell>
        <mxCell id="HL_lfFr4xf02-DWxIg63-51" value="" style="endArrow=classic;html=1;rounded=0;" edge="1" parent="WIyWlLk6GJQsqaUBKTNV-1">
          <mxGeometry width="50" height="50" relative="1" as="geometry">
            <mxPoint x="1289.5" y="840" as="sourcePoint" />
            <mxPoint x="1289.5" y="880" as="targetPoint" />
          </mxGeometry>
        </mxCell>
        <mxCell id="HL_lfFr4xf02-DWxIg63-54" value="" style="curved=1;endArrow=classic;html=1;rounded=0;exitX=0;exitY=0.5;exitDx=0;exitDy=0;entryX=0;entryY=0.5;entryDx=0;entryDy=0;" edge="1" parent="WIyWlLk6GJQsqaUBKTNV-1" source="HL_lfFr4xf02-DWxIg63-50" target="HL_lfFr4xf02-DWxIg63-48">
          <mxGeometry width="50" height="50" relative="1" as="geometry">
            <mxPoint x="1130" y="1020" as="sourcePoint" />
            <mxPoint x="1180" y="970" as="targetPoint" />
            <Array as="points">
              <mxPoint x="1180" y="920" />
              <mxPoint x="1160" y="820" />
            </Array>
          </mxGeometry>
        </mxCell>
        <mxCell id="HL_lfFr4xf02-DWxIg63-56" value="Admin home page" style="rounded=1;whiteSpace=wrap;html=1;fontSize=12;glass=0;strokeWidth=1;shadow=0;" vertex="1" parent="WIyWlLk6GJQsqaUBKTNV-1">
          <mxGeometry x="-550" y="690" width="120" height="40" as="geometry" />
        </mxCell>
        <mxCell id="HL_lfFr4xf02-DWxIg63-57" value="Home" style="rounded=1;whiteSpace=wrap;html=1;fontSize=12;glass=0;strokeWidth=1;shadow=0;" vertex="1" parent="WIyWlLk6GJQsqaUBKTNV-1">
          <mxGeometry x="-1360" y="810" width="120" height="40" as="geometry" />
        </mxCell>
        <mxCell id="HL_lfFr4xf02-DWxIg63-58" value="Question List" style="rounded=1;whiteSpace=wrap;html=1;fontSize=12;glass=0;strokeWidth=1;shadow=0;" vertex="1" parent="WIyWlLk6GJQsqaUBKTNV-1">
          <mxGeometry x="-1110" y="810" width="120" height="40" as="geometry" />
        </mxCell>
        <mxCell id="HL_lfFr4xf02-DWxIg63-59" value="Ask a question" style="rounded=1;whiteSpace=wrap;html=1;fontSize=12;glass=0;strokeWidth=1;shadow=0;" vertex="1" parent="WIyWlLk6GJQsqaUBKTNV-1">
          <mxGeometry x="-870" y="810" width="120" height="40" as="geometry" />
        </mxCell>
        <mxCell id="HL_lfFr4xf02-DWxIg63-61" value="" style="curved=1;endArrow=classic;html=1;rounded=0;exitX=0;exitY=0.5;exitDx=0;exitDy=0;entryX=0;entryY=0.5;entryDx=0;entryDy=0;" edge="1" parent="WIyWlLk6GJQsqaUBKTNV-1" source="HL_lfFr4xf02-DWxIg63-57" target="HL_lfFr4xf02-DWxIg63-56">
          <mxGeometry width="50" height="50" relative="1" as="geometry">
            <mxPoint x="-680" y="750" as="sourcePoint" />
            <mxPoint x="-630" y="700" as="targetPoint" />
            <Array as="points">
              <mxPoint x="-1470" y="610" />
            </Array>
          </mxGeometry>
        </mxCell>
        <mxCell id="HL_lfFr4xf02-DWxIg63-62" value="" style="endArrow=none;html=1;rounded=0;" edge="1" parent="WIyWlLk6GJQsqaUBKTNV-1">
          <mxGeometry width="50" height="50" relative="1" as="geometry">
            <mxPoint x="-1300.5" y="770" as="sourcePoint" />
            <mxPoint x="430" y="770" as="targetPoint" />
          </mxGeometry>
        </mxCell>
        <mxCell id="HL_lfFr4xf02-DWxIg63-63" value="" style="endArrow=none;html=1;rounded=0;entryX=0.5;entryY=1;entryDx=0;entryDy=0;" edge="1" parent="WIyWlLk6GJQsqaUBKTNV-1">
          <mxGeometry width="50" height="50" relative="1" as="geometry">
            <mxPoint x="-490.5" y="770" as="sourcePoint" />
            <mxPoint x="-490.5" y="730" as="targetPoint" />
          </mxGeometry>
        </mxCell>
        <mxCell id="HL_lfFr4xf02-DWxIg63-64" value="" style="endArrow=classic;html=1;rounded=0;entryX=0.5;entryY=0;entryDx=0;entryDy=0;" edge="1" parent="WIyWlLk6GJQsqaUBKTNV-1">
          <mxGeometry width="50" height="50" relative="1" as="geometry">
            <mxPoint x="-1300.5" y="770" as="sourcePoint" />
            <mxPoint x="-1300.5" y="810" as="targetPoint" />
          </mxGeometry>
        </mxCell>
        <mxCell id="HL_lfFr4xf02-DWxIg63-66" value="" style="endArrow=classic;html=1;rounded=0;entryX=0.5;entryY=0;entryDx=0;entryDy=0;" edge="1" parent="WIyWlLk6GJQsqaUBKTNV-1">
          <mxGeometry width="50" height="50" relative="1" as="geometry">
            <mxPoint x="-1050.5" y="770" as="sourcePoint" />
            <mxPoint x="-1050.5" y="810" as="targetPoint" />
          </mxGeometry>
        </mxCell>
        <mxCell id="HL_lfFr4xf02-DWxIg63-67" value="" style="endArrow=classic;html=1;rounded=0;" edge="1" parent="WIyWlLk6GJQsqaUBKTNV-1">
          <mxGeometry width="50" height="50" relative="1" as="geometry">
            <mxPoint x="-810.5" y="770" as="sourcePoint" />
            <mxPoint x="-810.5" y="810" as="targetPoint" />
          </mxGeometry>
        </mxCell>
        <mxCell id="HL_lfFr4xf02-DWxIg63-68" value="Individual question" style="rounded=1;whiteSpace=wrap;html=1;fontSize=12;glass=0;strokeWidth=1;shadow=0;" vertex="1" parent="WIyWlLk6GJQsqaUBKTNV-1">
          <mxGeometry x="-1110" y="890" width="120" height="40" as="geometry" />
        </mxCell>
        <mxCell id="HL_lfFr4xf02-DWxIg63-69" value="" style="endArrow=classic;html=1;rounded=0;exitX=0.5;exitY=1;exitDx=0;exitDy=0;" edge="1" parent="WIyWlLk6GJQsqaUBKTNV-1" target="HL_lfFr4xf02-DWxIg63-68">
          <mxGeometry width="50" height="50" relative="1" as="geometry">
            <mxPoint x="-1050" y="850" as="sourcePoint" />
            <mxPoint x="-1190" y="910" as="targetPoint" />
          </mxGeometry>
        </mxCell>
        <mxCell id="HL_lfFr4xf02-DWxIg63-70" value="" style="curved=1;endArrow=classic;html=1;rounded=0;exitX=0;exitY=0.5;exitDx=0;exitDy=0;entryX=0;entryY=0.5;entryDx=0;entryDy=0;" edge="1" parent="WIyWlLk6GJQsqaUBKTNV-1" source="HL_lfFr4xf02-DWxIg63-68">
          <mxGeometry width="50" height="50" relative="1" as="geometry">
            <mxPoint x="-1210" y="910" as="sourcePoint" />
            <mxPoint x="-1110" y="830" as="targetPoint" />
            <Array as="points">
              <mxPoint x="-1160" y="910" />
              <mxPoint x="-1180" y="860" />
            </Array>
          </mxGeometry>
        </mxCell>
        <mxCell id="HL_lfFr4xf02-DWxIg63-71" value="Input question" style="rounded=1;whiteSpace=wrap;html=1;fontSize=12;glass=0;strokeWidth=1;shadow=0;" vertex="1" parent="WIyWlLk6GJQsqaUBKTNV-1">
          <mxGeometry x="-870" y="890" width="120" height="40" as="geometry" />
        </mxCell>
        <mxCell id="HL_lfFr4xf02-DWxIg63-72" value="" style="endArrow=classic;html=1;rounded=0;" edge="1" parent="WIyWlLk6GJQsqaUBKTNV-1">
          <mxGeometry width="50" height="50" relative="1" as="geometry">
            <mxPoint x="-810.5" y="850" as="sourcePoint" />
            <mxPoint x="-810.5" y="890" as="targetPoint" />
          </mxGeometry>
        </mxCell>
        <mxCell id="HL_lfFr4xf02-DWxIg63-73" value="" style="endArrow=classic;html=1;rounded=0;exitX=0;exitY=0.5;exitDx=0;exitDy=0;edgeStyle=orthogonalEdgeStyle;entryX=1;entryY=0.5;entryDx=0;entryDy=0;" edge="1" parent="WIyWlLk6GJQsqaUBKTNV-1" source="HL_lfFr4xf02-DWxIg63-71" target="HL_lfFr4xf02-DWxIg63-58">
          <mxGeometry width="50" height="50" relative="1" as="geometry">
            <mxPoint x="-220" y="1050" as="sourcePoint" />
            <mxPoint x="-230" y="910" as="targetPoint" />
          </mxGeometry>
        </mxCell>
        <mxCell id="HL_lfFr4xf02-DWxIg63-74" value="Admin message" style="rounded=1;whiteSpace=wrap;html=1;fontSize=12;glass=0;strokeWidth=1;shadow=0;" vertex="1" parent="WIyWlLk6GJQsqaUBKTNV-1">
          <mxGeometry x="-670" y="810" width="120" height="40" as="geometry" />
        </mxCell>
        <mxCell id="HL_lfFr4xf02-DWxIg63-75" value="" style="endArrow=classic;html=1;rounded=0;" edge="1" parent="WIyWlLk6GJQsqaUBKTNV-1">
          <mxGeometry width="50" height="50" relative="1" as="geometry">
            <mxPoint x="-610.5" y="770" as="sourcePoint" />
            <mxPoint x="-610.5" y="810" as="targetPoint" />
          </mxGeometry>
        </mxCell>
        <mxCell id="HL_lfFr4xf02-DWxIg63-76" value="Input message" style="rounded=1;whiteSpace=wrap;html=1;fontSize=12;glass=0;strokeWidth=1;shadow=0;" vertex="1" parent="WIyWlLk6GJQsqaUBKTNV-1">
          <mxGeometry x="-670" y="890" width="120" height="40" as="geometry" />
        </mxCell>
        <mxCell id="HL_lfFr4xf02-DWxIg63-77" value="" style="endArrow=classic;html=1;rounded=0;" edge="1" parent="WIyWlLk6GJQsqaUBKTNV-1">
          <mxGeometry width="50" height="50" relative="1" as="geometry">
            <mxPoint x="-610.5" y="850" as="sourcePoint" />
            <mxPoint x="-610.5" y="890" as="targetPoint" />
          </mxGeometry>
        </mxCell>
        <mxCell id="HL_lfFr4xf02-DWxIg63-79" value="&lt;div&gt;Are they an&amp;nbsp;&lt;/div&gt;&lt;div&gt;admin&lt;/div&gt;" style="strokeWidth=2;html=1;shape=mxgraph.flowchart.decision;whiteSpace=wrap;" vertex="1" parent="WIyWlLk6GJQsqaUBKTNV-1">
          <mxGeometry x="350" y="480" width="100" height="100" as="geometry" />
        </mxCell>
        <mxCell id="HL_lfFr4xf02-DWxIg63-81" value="" style="endArrow=classic;html=1;rounded=0;entryX=0.5;entryY=0;entryDx=0;entryDy=0;edgeStyle=orthogonalEdgeStyle;exitX=0;exitY=0.5;exitDx=0;exitDy=0;exitPerimeter=0;" edge="1" parent="WIyWlLk6GJQsqaUBKTNV-1" source="HL_lfFr4xf02-DWxIg63-79" target="HL_lfFr4xf02-DWxIg63-56">
          <mxGeometry relative="1" as="geometry">
            <mxPoint x="250" y="660" as="sourcePoint" />
            <mxPoint x="350" y="660" as="targetPoint" />
          </mxGeometry>
        </mxCell>
        <mxCell id="HL_lfFr4xf02-DWxIg63-82" value="Yes" style="edgeLabel;resizable=0;html=1;;align=center;verticalAlign=middle;" connectable="0" vertex="1" parent="HL_lfFr4xf02-DWxIg63-81">
          <mxGeometry relative="1" as="geometry">
            <mxPoint x="-1" as="offset" />
          </mxGeometry>
        </mxCell>
        <mxCell id="HL_lfFr4xf02-DWxIg63-86" value="" style="endArrow=classic;html=1;rounded=0;edgeStyle=orthogonalEdgeStyle;exitX=1;exitY=0.5;exitDx=0;exitDy=0;exitPerimeter=0;entryX=0.25;entryY=0;entryDx=0;entryDy=0;" edge="1" parent="WIyWlLk6GJQsqaUBKTNV-1" source="HL_lfFr4xf02-DWxIg63-79" target="HL_lfFr4xf02-DWxIg63-23">
          <mxGeometry relative="1" as="geometry">
            <mxPoint x="680" y="670" as="sourcePoint" />
            <mxPoint x="670" y="490" as="targetPoint" />
            <Array as="points">
              <mxPoint x="950" y="530" />
            </Array>
          </mxGeometry>
        </mxCell>
        <mxCell id="HL_lfFr4xf02-DWxIg63-87" value="No" style="edgeLabel;resizable=0;html=1;;align=center;verticalAlign=middle;" connectable="0" vertex="1" parent="HL_lfFr4xf02-DWxIg63-86">
          <mxGeometry relative="1" as="geometry">
            <mxPoint x="-74" as="offset" />
          </mxGeometry>
        </mxCell>
        <mxCell id="HL_lfFr4xf02-DWxIg63-90" value="" style="endArrow=classic;html=1;rounded=0;entryX=0.5;entryY=0;entryDx=0;entryDy=0;exitX=0.5;exitY=1;exitDx=0;exitDy=0;exitPerimeter=0;entryPerimeter=0;" edge="1" parent="WIyWlLk6GJQsqaUBKTNV-1" source="HL_lfFr4xf02-DWxIg63-9" target="HL_lfFr4xf02-DWxIg63-79">
          <mxGeometry relative="1" as="geometry">
            <mxPoint x="780" y="570" as="sourcePoint" />
            <mxPoint x="310" y="720" as="targetPoint" />
          </mxGeometry>
        </mxCell>
        <mxCell id="HL_lfFr4xf02-DWxIg63-91" value="Yes" style="edgeLabel;resizable=0;html=1;;align=center;verticalAlign=middle;" connectable="0" vertex="1" parent="HL_lfFr4xf02-DWxIg63-90">
          <mxGeometry relative="1" as="geometry">
            <mxPoint x="-1" as="offset" />
          </mxGeometry>
        </mxCell>
        <mxCell id="HL_lfFr4xf02-DWxIg63-92" value="" style="curved=1;endArrow=classic;html=1;rounded=0;exitX=1;exitY=0.5;exitDx=0;exitDy=0;entryX=1;entryY=0.5;entryDx=0;entryDy=0;" edge="1" parent="WIyWlLk6GJQsqaUBKTNV-1" source="HL_lfFr4xf02-DWxIg63-34" target="WIyWlLk6GJQsqaUBKTNV-3">
          <mxGeometry width="50" height="50" relative="1" as="geometry">
            <mxPoint x="1610" y="800" as="sourcePoint" />
            <mxPoint x="1660" y="750" as="targetPoint" />
            <Array as="points">
              <mxPoint x="1650" y="620" />
              <mxPoint x="1350" y="110" />
            </Array>
          </mxGeometry>
        </mxCell>
        <mxCell id="HL_lfFr4xf02-DWxIg63-95" value="Module List" style="rounded=1;whiteSpace=wrap;html=1;fontSize=12;glass=0;strokeWidth=1;shadow=0;" vertex="1" parent="WIyWlLk6GJQsqaUBKTNV-1">
          <mxGeometry x="-400" y="810" width="120" height="40" as="geometry" />
        </mxCell>
        <mxCell id="HL_lfFr4xf02-DWxIg63-96" value="Add a new Module" style="rounded=1;whiteSpace=wrap;html=1;fontSize=12;glass=0;strokeWidth=1;shadow=0;" vertex="1" parent="WIyWlLk6GJQsqaUBKTNV-1">
          <mxGeometry x="-120" y="810" width="120" height="40" as="geometry" />
        </mxCell>
        <mxCell id="HL_lfFr4xf02-DWxIg63-97" value="Manage user" style="rounded=1;whiteSpace=wrap;html=1;fontSize=12;glass=0;strokeWidth=1;shadow=0;" vertex="1" parent="WIyWlLk6GJQsqaUBKTNV-1">
          <mxGeometry x="120" y="810" width="120" height="40" as="geometry" />
        </mxCell>
        <mxCell id="HL_lfFr4xf02-DWxIg63-98" value="" style="endArrow=classic;html=1;rounded=0;entryX=0.5;entryY=0;entryDx=0;entryDy=0;" edge="1" parent="WIyWlLk6GJQsqaUBKTNV-1">
          <mxGeometry width="50" height="50" relative="1" as="geometry">
            <mxPoint x="-340.5" y="770" as="sourcePoint" />
            <mxPoint x="-340.5" y="810" as="targetPoint" />
          </mxGeometry>
        </mxCell>
        <mxCell id="HL_lfFr4xf02-DWxIg63-99" value="" style="endArrow=classic;html=1;rounded=0;entryX=0.5;entryY=0;entryDx=0;entryDy=0;" edge="1" parent="WIyWlLk6GJQsqaUBKTNV-1">
          <mxGeometry width="50" height="50" relative="1" as="geometry">
            <mxPoint x="-60.5" y="770" as="sourcePoint" />
            <mxPoint x="-60.5" y="810" as="targetPoint" />
          </mxGeometry>
        </mxCell>
        <mxCell id="HL_lfFr4xf02-DWxIg63-100" value="" style="endArrow=classic;html=1;rounded=0;" edge="1" parent="WIyWlLk6GJQsqaUBKTNV-1">
          <mxGeometry width="50" height="50" relative="1" as="geometry">
            <mxPoint x="179.5" y="770" as="sourcePoint" />
            <mxPoint x="179.5" y="810" as="targetPoint" />
          </mxGeometry>
        </mxCell>
        <mxCell id="HL_lfFr4xf02-DWxIg63-101" value="Input module info" style="rounded=1;whiteSpace=wrap;html=1;fontSize=12;glass=0;strokeWidth=1;shadow=0;" vertex="1" parent="WIyWlLk6GJQsqaUBKTNV-1">
          <mxGeometry x="-120" y="890" width="120" height="40" as="geometry" />
        </mxCell>
        <mxCell id="HL_lfFr4xf02-DWxIg63-102" value="" style="endArrow=classic;html=1;rounded=0;exitX=0.5;exitY=1;exitDx=0;exitDy=0;" edge="1" parent="WIyWlLk6GJQsqaUBKTNV-1" target="HL_lfFr4xf02-DWxIg63-101">
          <mxGeometry width="50" height="50" relative="1" as="geometry">
            <mxPoint x="-60" y="850" as="sourcePoint" />
            <mxPoint x="-200" y="910" as="targetPoint" />
          </mxGeometry>
        </mxCell>
        <mxCell id="HL_lfFr4xf02-DWxIg63-103" value="" style="curved=1;endArrow=classic;html=1;rounded=0;exitX=0;exitY=0.5;exitDx=0;exitDy=0;entryX=0;entryY=0.5;entryDx=0;entryDy=0;" edge="1" parent="WIyWlLk6GJQsqaUBKTNV-1" source="HL_lfFr4xf02-DWxIg63-101">
          <mxGeometry width="50" height="50" relative="1" as="geometry">
            <mxPoint x="-220" y="910" as="sourcePoint" />
            <mxPoint x="-120" y="830" as="targetPoint" />
            <Array as="points">
              <mxPoint x="-150" y="880" />
              <mxPoint x="-140" y="830" />
            </Array>
          </mxGeometry>
        </mxCell>
        <mxCell id="HL_lfFr4xf02-DWxIg63-107" value="Logout" style="rounded=1;whiteSpace=wrap;html=1;fontSize=12;glass=0;strokeWidth=1;shadow=0;" vertex="1" parent="WIyWlLk6GJQsqaUBKTNV-1">
          <mxGeometry x="370" y="810" width="120" height="40" as="geometry" />
        </mxCell>
        <mxCell id="HL_lfFr4xf02-DWxIg63-108" value="" style="endArrow=classic;html=1;rounded=0;" edge="1" parent="WIyWlLk6GJQsqaUBKTNV-1">
          <mxGeometry width="50" height="50" relative="1" as="geometry">
            <mxPoint x="429.5" y="770" as="sourcePoint" />
            <mxPoint x="429.5" y="810" as="targetPoint" />
          </mxGeometry>
        </mxCell>
        <mxCell id="HL_lfFr4xf02-DWxIg63-116" value="Edit module" style="rounded=1;whiteSpace=wrap;html=1;fontSize=12;glass=0;strokeWidth=1;shadow=0;" vertex="1" parent="WIyWlLk6GJQsqaUBKTNV-1">
          <mxGeometry x="-500" y="920" width="120" height="40" as="geometry" />
        </mxCell>
        <mxCell id="HL_lfFr4xf02-DWxIg63-117" value="" style="endArrow=classic;html=1;rounded=0;exitX=0.5;exitY=1;exitDx=0;exitDy=0;" edge="1" parent="WIyWlLk6GJQsqaUBKTNV-1" target="HL_lfFr4xf02-DWxIg63-116">
          <mxGeometry width="50" height="50" relative="1" as="geometry">
            <mxPoint x="-440" y="880" as="sourcePoint" />
            <mxPoint x="-580" y="940" as="targetPoint" />
          </mxGeometry>
        </mxCell>
        <mxCell id="HL_lfFr4xf02-DWxIg63-118" value="Delete Module" style="rounded=1;whiteSpace=wrap;html=1;fontSize=12;glass=0;strokeWidth=1;shadow=0;" vertex="1" parent="WIyWlLk6GJQsqaUBKTNV-1">
          <mxGeometry x="-300" y="920" width="120" height="40" as="geometry" />
        </mxCell>
        <mxCell id="HL_lfFr4xf02-DWxIg63-119" value="" style="endArrow=classic;html=1;rounded=0;exitX=0.5;exitY=1;exitDx=0;exitDy=0;" edge="1" parent="WIyWlLk6GJQsqaUBKTNV-1" target="HL_lfFr4xf02-DWxIg63-118">
          <mxGeometry width="50" height="50" relative="1" as="geometry">
            <mxPoint x="-240" y="880" as="sourcePoint" />
            <mxPoint x="-380" y="940" as="targetPoint" />
          </mxGeometry>
        </mxCell>
        <mxCell id="HL_lfFr4xf02-DWxIg63-120" value="" style="endArrow=none;html=1;rounded=0;" edge="1" parent="WIyWlLk6GJQsqaUBKTNV-1">
          <mxGeometry width="50" height="50" relative="1" as="geometry">
            <mxPoint x="-440" y="880" as="sourcePoint" />
            <mxPoint x="-240" y="880" as="targetPoint" />
          </mxGeometry>
        </mxCell>
        <mxCell id="HL_lfFr4xf02-DWxIg63-121" value="" style="endArrow=none;html=1;rounded=0;entryX=0.5;entryY=1;entryDx=0;entryDy=0;" edge="1" parent="WIyWlLk6GJQsqaUBKTNV-1" target="HL_lfFr4xf02-DWxIg63-95">
          <mxGeometry width="50" height="50" relative="1" as="geometry">
            <mxPoint x="-340" y="880" as="sourcePoint" />
            <mxPoint x="-290" y="990" as="targetPoint" />
          </mxGeometry>
        </mxCell>
        <mxCell id="HL_lfFr4xf02-DWxIg63-122" value="" style="curved=1;endArrow=classic;html=1;rounded=0;entryX=1;entryY=0.5;entryDx=0;entryDy=0;" edge="1" parent="WIyWlLk6GJQsqaUBKTNV-1" target="HL_lfFr4xf02-DWxIg63-95">
          <mxGeometry width="50" height="50" relative="1" as="geometry">
            <mxPoint x="-180" y="940" as="sourcePoint" />
            <mxPoint x="-130" y="890" as="targetPoint" />
            <Array as="points">
              <mxPoint x="-150" y="930" />
              <mxPoint x="-180" y="830" />
            </Array>
          </mxGeometry>
        </mxCell>
        <mxCell id="HL_lfFr4xf02-DWxIg63-123" value="" style="curved=1;endArrow=classic;html=1;rounded=0;entryX=0;entryY=0.5;entryDx=0;entryDy=0;exitX=0;exitY=0.5;exitDx=0;exitDy=0;" edge="1" parent="WIyWlLk6GJQsqaUBKTNV-1" source="HL_lfFr4xf02-DWxIg63-116" target="HL_lfFr4xf02-DWxIg63-95">
          <mxGeometry width="50" height="50" relative="1" as="geometry">
            <mxPoint x="-250" y="1160" as="sourcePoint" />
            <mxPoint x="-350" y="1050" as="targetPoint" />
            <Array as="points">
              <mxPoint x="-530" y="840" />
              <mxPoint x="-470" y="820" />
            </Array>
          </mxGeometry>
        </mxCell>
        <mxCell id="HL_lfFr4xf02-DWxIg63-124" value="Edit module" style="rounded=1;whiteSpace=wrap;html=1;fontSize=12;glass=0;strokeWidth=1;shadow=0;" vertex="1" parent="WIyWlLk6GJQsqaUBKTNV-1">
          <mxGeometry x="20" y="920" width="120" height="40" as="geometry" />
        </mxCell>
        <mxCell id="HL_lfFr4xf02-DWxIg63-125" value="" style="endArrow=classic;html=1;rounded=0;exitX=0.5;exitY=1;exitDx=0;exitDy=0;" edge="1" parent="WIyWlLk6GJQsqaUBKTNV-1" target="HL_lfFr4xf02-DWxIg63-124">
          <mxGeometry width="50" height="50" relative="1" as="geometry">
            <mxPoint x="80" y="880" as="sourcePoint" />
            <mxPoint x="-60" y="940" as="targetPoint" />
          </mxGeometry>
        </mxCell>
        <mxCell id="HL_lfFr4xf02-DWxIg63-126" value="Delete Module" style="rounded=1;whiteSpace=wrap;html=1;fontSize=12;glass=0;strokeWidth=1;shadow=0;" vertex="1" parent="WIyWlLk6GJQsqaUBKTNV-1">
          <mxGeometry x="220" y="920" width="120" height="40" as="geometry" />
        </mxCell>
        <mxCell id="HL_lfFr4xf02-DWxIg63-127" value="" style="endArrow=classic;html=1;rounded=0;exitX=0.5;exitY=1;exitDx=0;exitDy=0;" edge="1" parent="WIyWlLk6GJQsqaUBKTNV-1" target="HL_lfFr4xf02-DWxIg63-126">
          <mxGeometry width="50" height="50" relative="1" as="geometry">
            <mxPoint x="280" y="880" as="sourcePoint" />
            <mxPoint x="140" y="940" as="targetPoint" />
          </mxGeometry>
        </mxCell>
        <mxCell id="HL_lfFr4xf02-DWxIg63-128" value="" style="endArrow=none;html=1;rounded=0;" edge="1" parent="WIyWlLk6GJQsqaUBKTNV-1">
          <mxGeometry width="50" height="50" relative="1" as="geometry">
            <mxPoint x="80" y="880" as="sourcePoint" />
            <mxPoint x="280" y="880" as="targetPoint" />
          </mxGeometry>
        </mxCell>
        <mxCell id="HL_lfFr4xf02-DWxIg63-129" value="" style="endArrow=none;html=1;rounded=0;entryX=0.5;entryY=1;entryDx=0;entryDy=0;" edge="1" parent="WIyWlLk6GJQsqaUBKTNV-1">
          <mxGeometry width="50" height="50" relative="1" as="geometry">
            <mxPoint x="180" y="880" as="sourcePoint" />
            <mxPoint x="180" y="850" as="targetPoint" />
          </mxGeometry>
        </mxCell>
        <mxCell id="HL_lfFr4xf02-DWxIg63-130" value="" style="curved=1;endArrow=classic;html=1;rounded=0;entryX=1;entryY=0.5;entryDx=0;entryDy=0;" edge="1" parent="WIyWlLk6GJQsqaUBKTNV-1">
          <mxGeometry width="50" height="50" relative="1" as="geometry">
            <mxPoint x="340" y="940" as="sourcePoint" />
            <mxPoint x="240" y="830" as="targetPoint" />
            <Array as="points">
              <mxPoint x="370" y="930" />
              <mxPoint x="340" y="830" />
            </Array>
          </mxGeometry>
        </mxCell>
        <mxCell id="HL_lfFr4xf02-DWxIg63-131" value="" style="curved=1;endArrow=classic;html=1;rounded=0;entryX=0;entryY=0.5;entryDx=0;entryDy=0;exitX=0;exitY=0.5;exitDx=0;exitDy=0;" edge="1" parent="WIyWlLk6GJQsqaUBKTNV-1" source="HL_lfFr4xf02-DWxIg63-124">
          <mxGeometry width="50" height="50" relative="1" as="geometry">
            <mxPoint x="270" y="1160" as="sourcePoint" />
            <mxPoint x="120" y="830" as="targetPoint" />
            <Array as="points">
              <mxPoint x="-10" y="840" />
              <mxPoint x="50" y="820" />
            </Array>
          </mxGeometry>
        </mxCell>
        <mxCell id="HL_lfFr4xf02-DWxIg63-132" value="" style="curved=1;endArrow=classic;html=1;rounded=0;exitX=0.5;exitY=1;exitDx=0;exitDy=0;entryX=0;entryY=0;entryDx=0;entryDy=0;" edge="1" parent="WIyWlLk6GJQsqaUBKTNV-1" source="HL_lfFr4xf02-DWxIg63-107" target="WIyWlLk6GJQsqaUBKTNV-3">
          <mxGeometry width="50" height="50" relative="1" as="geometry">
            <mxPoint x="160" y="1090" as="sourcePoint" />
            <mxPoint x="210" y="1040" as="targetPoint" />
            <Array as="points">
              <mxPoint x="410" y="1070" />
              <mxPoint x="-610" y="970" />
              <mxPoint x="-990" y="1040" />
              <mxPoint x="-1360" y="900" />
              <mxPoint x="-1440" y="770" />
              <mxPoint x="-610" y="-110" />
            </Array>
          </mxGeometry>
        </mxCell>
      </root>
    </mxGraphModel>
  </diagram>
</mxfile>
